<mxfile host="65bd71144e">
    <diagram id="3X3UyHTEZBTcUHDAq7y1" name="Page-1">
        <mxGraphModel dx="2441" dy="867" grid="1" gridSize="10" guides="1" tooltips="1" connect="1" arrows="1" fold="1" page="1" pageScale="1" pageWidth="850" pageHeight="1100" math="0" shadow="0">
            <root>
                <mxCell id="0"/>
                <mxCell id="1" parent="0"/>
                <mxCell id="2" value="" style="rounded=1;whiteSpace=wrap;html=1;" vertex="1" parent="1">
                    <mxGeometry x="-80" y="100" width="990" height="2040" as="geometry"/>
                </mxCell>
                <mxCell id="9" value="" style="line;strokeWidth=1;rotatable=0;dashed=0;labelPosition=right;align=left;verticalAlign=middle;spacingTop=0;spacingLeft=6;points=[];portConstraint=eastwest;" vertex="1" parent="1">
                    <mxGeometry x="-80" y="390" width="990" height="10" as="geometry"/>
                </mxCell>
                <mxCell id="10" value="" style="group" vertex="1" connectable="0" parent="1">
                    <mxGeometry x="-50" y="170" width="920" height="180" as="geometry"/>
                </mxCell>
                <mxCell id="3" value="" style="rounded=1;whiteSpace=wrap;html=1;fillColor=#fff2cc;strokeColor=#d6b656;" vertex="1" parent="10">
                    <mxGeometry width="920" height="180" as="geometry"/>
                </mxCell>
                <mxCell id="5" value="&lt;h1 style=&quot;margin-top: 0px;&quot;&gt;Name&lt;/h1&gt;" style="text;html=1;whiteSpace=wrap;overflow=hidden;rounded=0;align=center;verticalAlign=middle;" vertex="1" parent="10">
                    <mxGeometry x="20" y="10" width="90" height="60" as="geometry"/>
                </mxCell>
                <mxCell id="6" value="&lt;span style=&quot;font-size: 24px;&quot;&gt;First Name&lt;/span&gt;" style="rounded=1;whiteSpace=wrap;html=1;fillColor=#d5e8d4;strokeColor=#82b366;" vertex="1" parent="10">
                    <mxGeometry x="20" y="70" width="270" height="60" as="geometry"/>
                </mxCell>
                <mxCell id="7" value="&lt;span style=&quot;font-size: 24px;&quot;&gt;Middle Name&lt;/span&gt;" style="rounded=1;whiteSpace=wrap;html=1;fillColor=#d5e8d4;strokeColor=#82b366;" vertex="1" parent="10">
                    <mxGeometry x="325" y="70" width="270" height="60" as="geometry"/>
                </mxCell>
                <mxCell id="8" value="&lt;span style=&quot;font-size: 24px;&quot;&gt;Last Name&lt;/span&gt;" style="rounded=1;whiteSpace=wrap;html=1;fillColor=#d5e8d4;strokeColor=#82b366;" vertex="1" parent="10">
                    <mxGeometry x="630" y="70" width="270" height="60" as="geometry"/>
                </mxCell>
                <mxCell id="13" value="" style="group" vertex="1" connectable="0" parent="1">
                    <mxGeometry x="-50" y="450" width="920" height="180" as="geometry"/>
                </mxCell>
                <mxCell id="14" value="" style="rounded=1;whiteSpace=wrap;html=1;fillColor=#fff2cc;strokeColor=#d6b656;" vertex="1" parent="13">
                    <mxGeometry width="920" height="180" as="geometry"/>
                </mxCell>
                <mxCell id="15" value="&lt;h1 style=&quot;margin-top: 0px;&quot;&gt;Account Info&lt;/h1&gt;" style="text;html=1;whiteSpace=wrap;overflow=hidden;rounded=0;align=center;verticalAlign=middle;" vertex="1" parent="13">
                    <mxGeometry x="20" y="10" width="160" height="60" as="geometry"/>
                </mxCell>
                <mxCell id="16" value="&lt;span style=&quot;font-size: 24px;&quot;&gt;Email&lt;/span&gt;" style="rounded=1;whiteSpace=wrap;html=1;fillColor=#d5e8d4;strokeColor=#82b366;" vertex="1" parent="13">
                    <mxGeometry x="20" y="70" width="270" height="60" as="geometry"/>
                </mxCell>
                <mxCell id="17" value="&lt;span style=&quot;font-size: 24px;&quot;&gt;Password&lt;/span&gt;" style="rounded=1;whiteSpace=wrap;html=1;fillColor=#d5e8d4;strokeColor=#82b366;" vertex="1" parent="13">
                    <mxGeometry x="325" y="70" width="270" height="60" as="geometry"/>
                </mxCell>
                <mxCell id="18" value="&lt;span style=&quot;font-size: 24px;&quot;&gt;Confirm Password&lt;/span&gt;" style="rounded=1;whiteSpace=wrap;html=1;fillColor=#d5e8d4;strokeColor=#82b366;" vertex="1" parent="13">
                    <mxGeometry x="630" y="70" width="270" height="60" as="geometry"/>
                </mxCell>
                <mxCell id="19" value="" style="line;strokeWidth=1;rotatable=0;dashed=0;labelPosition=right;align=left;verticalAlign=middle;spacingTop=0;spacingLeft=6;points=[];portConstraint=eastwest;" vertex="1" parent="1">
                    <mxGeometry x="-80" y="670" width="990" height="10" as="geometry"/>
                </mxCell>
                <mxCell id="22" value="" style="group" vertex="1" connectable="0" parent="1">
                    <mxGeometry x="-50" y="730" width="920" height="180" as="geometry"/>
                </mxCell>
                <mxCell id="23" value="" style="rounded=1;whiteSpace=wrap;html=1;fillColor=#fff2cc;strokeColor=#d6b656;" vertex="1" parent="22">
                    <mxGeometry width="920" height="180" as="geometry"/>
                </mxCell>
                <mxCell id="24" value="&lt;h1 style=&quot;margin-top: 0px;&quot;&gt;Personal Info&lt;/h1&gt;" style="text;html=1;whiteSpace=wrap;overflow=hidden;rounded=0;align=center;verticalAlign=middle;" vertex="1" parent="22">
                    <mxGeometry x="20" y="10" width="160" height="60" as="geometry"/>
                </mxCell>
                <mxCell id="28" value="&lt;span style=&quot;font-size: 24px;&quot;&gt;Phone&lt;/span&gt;" style="rounded=1;whiteSpace=wrap;html=1;fillColor=#d5e8d4;strokeColor=#82b366;" vertex="1" parent="22">
                    <mxGeometry x="20" y="70" width="270" height="60" as="geometry"/>
                </mxCell>
                <mxCell id="29" value="&lt;span style=&quot;font-size: 24px;&quot;&gt;Image&lt;/span&gt;" style="rounded=1;whiteSpace=wrap;html=1;fillColor=#d5e8d4;strokeColor=#82b366;" vertex="1" parent="22">
                    <mxGeometry x="325" y="70" width="575" height="60" as="geometry"/>
                </mxCell>
                <mxCell id="30" value="" style="line;strokeWidth=1;rotatable=0;dashed=0;labelPosition=right;align=left;verticalAlign=middle;spacingTop=0;spacingLeft=6;points=[];portConstraint=eastwest;" vertex="1" parent="1">
                    <mxGeometry x="-80" y="950" width="990" height="10" as="geometry"/>
                </mxCell>
                <mxCell id="36" value="" style="group" vertex="1" connectable="0" parent="1">
                    <mxGeometry x="-50" y="990" width="970" height="820" as="geometry"/>
                </mxCell>
                <mxCell id="37" value="" style="rounded=1;whiteSpace=wrap;html=1;fillColor=#fff2cc;strokeColor=#d6b656;" vertex="1" parent="36">
                    <mxGeometry width="920" height="710" as="geometry"/>
                </mxCell>
                <mxCell id="38" value="&lt;h1 style=&quot;margin-top: 0px;&quot;&gt;Address&lt;/h1&gt;" style="text;html=1;whiteSpace=wrap;overflow=hidden;rounded=0;align=center;verticalAlign=middle;" vertex="1" parent="36">
                    <mxGeometry x="40" y="60" width="160" height="44.44" as="geometry"/>
                </mxCell>
                <mxCell id="41" value="&lt;span style=&quot;font-size: 24px;&quot;&gt;Country&lt;/span&gt;" style="rounded=1;whiteSpace=wrap;html=1;fillColor=#d5e8d4;strokeColor=#82b366;" vertex="1" parent="36">
                    <mxGeometry x="60" y="130" width="360" height="60" as="geometry"/>
                </mxCell>
                <mxCell id="42" value="&lt;span style=&quot;font-size: 24px;&quot;&gt;State&lt;/span&gt;" style="rounded=1;whiteSpace=wrap;html=1;fillColor=#d5e8d4;strokeColor=#82b366;" vertex="1" parent="36">
                    <mxGeometry x="475" y="130" width="360" height="60" as="geometry"/>
                </mxCell>
                <mxCell id="43" value="&lt;span style=&quot;font-size: 24px;&quot;&gt;City&lt;/span&gt;" style="rounded=1;whiteSpace=wrap;html=1;fillColor=#d5e8d4;strokeColor=#82b366;" vertex="1" parent="36">
                    <mxGeometry x="60" y="340" width="360" height="60" as="geometry"/>
                </mxCell>
                <mxCell id="44" value="&lt;span style=&quot;font-size: 24px;&quot;&gt;Street&lt;/span&gt;" style="rounded=1;whiteSpace=wrap;html=1;fillColor=#d5e8d4;strokeColor=#82b366;" vertex="1" parent="36">
                    <mxGeometry x="475" y="340" width="360" height="60" as="geometry"/>
                </mxCell>
                <mxCell id="45" value="&lt;span style=&quot;font-size: 24px;&quot;&gt;Zip&lt;/span&gt;" style="rounded=1;whiteSpace=wrap;html=1;fillColor=#d5e8d4;strokeColor=#82b366;" vertex="1" parent="36">
                    <mxGeometry x="465" y="540" width="360" height="60" as="geometry"/>
                </mxCell>
                <mxCell id="46" value="&lt;span style=&quot;font-size: 24px;&quot;&gt;House Number&lt;/span&gt;" style="rounded=1;whiteSpace=wrap;html=1;fillColor=#d5e8d4;strokeColor=#82b366;" vertex="1" parent="36">
                    <mxGeometry x="50" y="540" width="360" height="60" as="geometry"/>
                </mxCell>
                <mxCell id="49" value="" style="line;strokeWidth=1;rotatable=0;dashed=0;labelPosition=right;align=left;verticalAlign=middle;spacingTop=0;spacingLeft=6;points=[];portConstraint=eastwest;" vertex="1" parent="36">
                    <mxGeometry x="-35" y="740" width="990" height="10" as="geometry"/>
                </mxCell>
                <mxCell id="53" value="&lt;font style=&quot;font-size: 50px;&quot;&gt;Is Business?&lt;/font&gt;" style="rounded=1;fillColor=#F0F2F5;strokeColor=#D8DCE3;align=left;verticalAlign=middle;fontStyle=0;fontSize=12;labelPosition=right;verticalLabelPosition=middle;spacingLeft=10;html=1;shadow=0;dashed=0" vertex="1" parent="1">
                    <mxGeometry x="220" y="1810" width="50" height="50" as="geometry"/>
                </mxCell>
                <mxCell id="54" value="" style="line;strokeWidth=1;rotatable=0;dashed=0;labelPosition=right;align=left;verticalAlign=middle;spacingTop=0;spacingLeft=6;points=[];portConstraint=eastwest;" vertex="1" parent="1">
                    <mxGeometry x="-80" y="1920" width="990" height="10" as="geometry"/>
                </mxCell>
                <mxCell id="55" value="&lt;font style=&quot;font-size: 50px; color: rgb(255, 255, 255);&quot;&gt;Register&lt;/font&gt;" style="rounded=1;fillColor=#0057D8;strokeColor=none;html=1;whiteSpace=wrap;fontColor=#ffffff;align=center;verticalAlign=middle;fontStyle=0;fontSize=12;sketch=0;" vertex="1" parent="1">
                    <mxGeometry x="239.5" y="1990" width="340.5" height="80" as="geometry"/>
                </mxCell>
            </root>
        </mxGraphModel>
    </diagram>
</mxfile>